<?xml version="1.0" encoding="UTF-8"?>
<svg width="60px" height="60px" viewBox="0 0 60 60" version="1.1" xmlns="http://www.w3.org/2000/svg" xmlns:xlink="http://www.w3.org/1999/xlink">
    <!-- Generator: Sketch 63.1 (92452) - https://sketch.com -->
    <title>Combined Shape</title>
    <desc>Created with Sketch.</desc>
    <defs>
        <linearGradient x1="100%" y1="0%" x2="0%" y2="100%" id="linearGradient-1">
            <stop stop-color="#F09819" offset="0%"></stop>
            <stop stop-color="#EDDE5D" offset="100%"></stop>
        </linearGradient>
    </defs>
    <g id="Simple" stroke="none" stroke-width="1" fill="none" fill-rule="evenodd">
        <g id="Desktop-Full-HD-2" transform="translate(-1209.000000, -1880.000000)" fill="url(#linearGradient-1)" fill-rule="nonzero">
            <g id="Group-3" transform="translate(1129.000000, 1880.000000)">
                <g id="Group-2">
                    <path d="M140,0 L140,60 L80,60 L80,0 L140,0 Z M106.488,17.908 L101.052,17.908 L101.052,43 L106.488,43 L106.488,41.668 C107.352,42.568 107.352,42.568 108.594,42.982 C109.836,43.396 109.836,43.396 111.132,43.396 C113.4,43.396 113.4,43.396 115.02,42.208 C116.64,41.02 116.64,41.02 117.504,38.914 C118.368,36.808 118.368,36.808 118.368,34.108 C118.368,31.228 118.368,31.228 117.414,29.14 C116.46,27.052 116.46,27.052 114.84,25.954 C113.22,24.856 113.22,24.856 111.24,24.856 C109.872,24.856 109.872,24.856 108.594,25.342 C107.47575,25.76725 107.47575,25.76725 106.702031,26.4543437 L106.488,26.656 L106.488,17.908 Z M109.62,29.824 C111.384,29.824 111.384,29.824 112.176,30.922 C112.968,32.02 112.968,32.02 112.968,34.18 C112.968,36.304 112.968,36.304 112.194,37.312 C111.42,38.32 111.42,38.32 109.692,38.32 C107.748,38.32 107.748,38.32 106.866,37.186 C105.984,36.052 105.984,36.052 105.984,34.18 C105.984,32.308 105.984,32.308 106.83,31.066 C107.676,29.824 107.676,29.824 109.62,29.824 Z" id="Combined-Shape"></path>
                </g>
            </g>
        </g>
    </g>
</svg>