<svg width="1012" height="810" viewBox="0 0 1012 810" fill="none" xmlns="http://www.w3.org/2000/svg">
<path d="M4.4 139.6H18.4C20.2667 139.6 21.5333 139.267 22.2 138.6C22.8667 137.8 23.2 136.533 23.2 134.8V14.8C23.2 12.9333 22.8667 11.6667 22.2 11C21.5333 10.3333 20.2667 10 18.4 10H4.4V3.6H71.6V10H57.6C55.8667 10 54.6 10.3333 53.8 11C53.1333 11.6667 52.8 12.9333 52.8 14.8V67.6H100V14.8C100 12.9333 99.6667 11.6667 99 11C98.3333 10.3333 97.0667 10 95.2 10H80.8V3.6H148.4V10H134.4C132.667 10 131.4 10.3333 130.6 11C129.933 11.6667 129.6 12.9333 129.6 14.8V134.8C129.6 136.533 129.933 137.8 130.6 138.6C131.4 139.267 132.667 139.6 134.4 139.6H148.4V146H81.2V139.6H95.2C97.0667 139.6 98.3333 139.267 99 138.6C99.6667 137.8 100 136.533 100 134.8V74.8H52.8V134.8C52.8 136.533 53.1333 137.8 53.8 138.6C54.6 139.267 55.8667 139.6 57.6 139.6H71.6V146H4.4V139.6ZM246.644 149.6C234.644 149.6 224.71 147.267 216.844 142.6C208.977 137.8 203.177 131.6 199.444 124C195.844 116.267 194.044 107.8 194.044 98.6V14.8C194.044 12.9333 193.71 11.6667 193.044 11C192.377 10.3333 191.11 10 189.244 10H176.444V3.6H241.244V10H228.444C226.71 10 225.444 10.3333 224.644 11C223.977 11.6667 223.644 12.9333 223.644 14.8V106.4C223.644 118.667 225.977 127.6 230.644 133.2C235.31 138.8 242.51 141.6 252.244 141.6C258.777 141.6 264.644 140 269.844 136.8C275.044 133.6 279.11 129.333 282.044 124C284.977 118.667 286.444 112.8 286.444 106.4V28C286.444 22 284.377 17.5333 280.244 14.6C276.244 11.5333 271.377 10 265.644 10V3.6H315.244V10C309.51 10 304.577 11.5333 300.444 14.6C296.444 17.5333 294.444 22 294.444 28V104.4C294.444 112.8 292.51 120.467 288.644 127.4C284.91 134.2 279.377 139.6 272.044 143.6C264.844 147.6 256.377 149.6 246.644 149.6ZM367.433 38.6H366.033V121.6C366.033 127.6 368.033 132.133 372.033 135.2C376.166 138.133 381.099 139.6 386.833 139.6V146H337.233V139.6C342.966 139.6 347.833 138.133 351.833 135.2C355.966 132.133 358.033 127.6 358.033 121.6V14.8C358.033 12.9333 357.699 11.6667 357.033 11C356.366 10.3333 355.099 10 353.233 10H337.233V3.6H385.033L421.633 102L448.433 3.6H499.233V10H485.233C483.499 10 482.233 10.3333 481.433 11C480.766 11.6667 480.433 12.9333 480.433 14.8V134.8C480.433 136.533 480.766 137.8 481.433 138.6C482.233 139.267 483.499 139.6 485.233 139.6H499.233V146H432.033V139.6H446.033C447.899 139.6 449.166 139.267 449.833 138.6C450.499 137.8 450.833 136.533 450.833 134.8V21L416.033 148.4H408.233L367.433 38.6ZM520.363 139.6H527.163C531.163 139.6 534.696 138.067 537.763 135C540.829 131.8 543.163 127.933 544.763 123.4L586.963 -3.8147e-06H595.363L638.163 129.4C640.429 136.2 644.363 139.6 649.963 139.6H657.963V146H587.763V139.6H602.163C603.763 139.6 605.029 139 605.963 137.8C607.029 136.467 607.563 134.933 607.563 133.2C607.563 131.733 607.163 129.8 606.363 127.4L599.963 108.2H557.963L553.763 120.4C552.296 124.133 551.563 127.533 551.563 130.6C551.563 133 552.496 135.133 554.363 137C556.363 138.733 558.896 139.6 561.963 139.6H571.363V146H520.363V139.6ZM560.563 100.8H597.563L579.363 45.8L560.563 100.8ZM711.944 42.6H711.144V118.8C711.144 124.933 713.477 129.933 718.144 133.8C722.944 137.667 729.01 139.6 736.344 139.6V146H677.944V139.6C685.277 139.6 691.277 137.667 695.944 133.8C700.744 129.933 703.144 124.933 703.144 118.8V33.4C703.144 31.9333 703.01 30.8667 702.744 30.2C702.477 29.5333 701.877 28.5333 700.944 27.2L692.944 15.2C691.61 13.2 690.144 11.8667 688.544 11.2C686.944 10.4 684.61 10 681.544 10H677.944V3.6H722.344L786.344 95V30.8C786.344 24.6667 783.944 19.6667 779.144 15.8C774.477 11.9333 768.477 10 761.144 10V3.6H819.544V10C812.21 10 806.144 11.9333 801.344 15.8C796.677 19.6667 794.344 24.6667 794.344 30.8V149.6H786.744L711.944 42.6ZM0.800001 359.6H7.6C11.6 359.6 15.1333 358.067 18.2 355C21.2667 351.8 23.6 347.933 25.2 343.4L67.4 220H75.8L118.6 349.4C120.867 356.2 124.8 359.6 130.4 359.6H138.4V366H68.2V359.6H82.6C84.2 359.6 85.4667 359 86.4 357.8C87.4667 356.467 88 354.933 88 353.2C88 351.733 87.6 349.8 86.8 347.4L80.4 328.2H38.4L34.2 340.4C32.7333 344.133 32 347.533 32 350.6C32 353 32.9333 355.133 34.8 357C36.8 358.733 39.3333 359.6 42.4 359.6H51.8V366H0.800001V359.6ZM41 320.8H78L59.8 265.8L41 320.8ZM267.781 370.8C259.248 370.8 252.448 368.267 247.381 363.2C242.448 358.133 239.981 350.667 239.981 340.8V316C239.981 309.6 238.381 304.2 235.181 299.8C232.115 295.4 227.315 293.2 220.781 293.2H209.581V354.8C209.581 356.533 209.915 357.8 210.581 358.6C211.381 359.267 212.648 359.6 214.381 359.6H231.981V366H161.181V359.6H175.181C177.048 359.6 178.315 359.267 178.981 358.6C179.648 357.8 179.981 356.533 179.981 354.8V234.8C179.981 232.933 179.648 231.667 178.981 231C178.315 230.333 177.048 230 175.181 230H161.181V223.6H225.981C240.381 223.6 251.981 226.8 260.781 233.2C269.581 239.467 273.981 248 273.981 258.8C273.981 268 270.581 275.267 263.781 280.6C257.115 285.933 248.248 289.267 237.181 290.6V292C247.581 293.867 255.581 297.6 261.181 303.2C266.781 308.667 269.581 317.267 269.581 329V351.2C269.581 356.8 271.448 359.6 275.181 359.6C278.648 359.6 281.181 356.733 282.781 351C284.381 345.267 285.181 338.267 285.181 330H291.581C291.581 342.933 289.848 353 286.381 360.2C282.915 367.267 276.715 370.8 267.781 370.8ZM222.981 286.8C230.048 286.8 234.981 284.2 237.781 279C240.581 273.8 241.981 266.533 241.981 257.2C241.981 248.133 240.581 241.333 237.781 236.8C234.981 232.267 230.048 230 222.981 230H214.381C212.648 230 211.381 230.333 210.581 231C209.915 231.667 209.581 232.933 209.581 234.8V286.8H222.981ZM338.875 359.6H354.875C356.742 359.6 358.008 359.267 358.675 358.6C359.342 357.8 359.675 356.533 359.675 354.8V236.8C359.675 234.667 359.008 233 357.675 231.8C356.342 230.6 354.542 230 352.275 230C346.008 230 340.275 233.467 335.075 240.4C329.875 247.2 326.008 255.2 323.475 264.4C322.008 269.333 320.942 273.533 320.275 277C319.742 280.333 319.408 282.4 319.275 283.2H312.875L314.475 223.6H434.475L436.075 283.2H429.675C429.542 282.4 429.142 280.333 428.475 277C427.942 273.533 426.942 269.333 425.475 264.4C422.942 255.2 419.075 247.2 413.875 240.4C408.675 233.467 402.942 230 396.675 230C394.408 230 392.608 230.6 391.275 231.8C389.942 233 389.275 234.667 389.275 236.8V354.8C389.275 356.533 389.608 357.8 390.275 358.6C391.075 359.267 392.342 359.6 394.075 359.6H410.075V366H338.875V359.6ZM519.439 369.6C513.572 369.6 508.306 368.733 503.639 367C498.972 365.4 495.106 363.333 492.039 360.8C488.972 358.533 486.772 357 485.439 356.2C484.106 355.267 482.839 354.8 481.639 354.8C478.839 354.8 477.106 357.067 476.439 361.6L475.439 368H469.239L468.039 304.8H474.439C476.306 314.933 479.439 324.467 483.839 333.4C488.372 342.333 493.772 349.533 500.039 355C506.439 360.467 513.306 363.2 520.639 363.2C531.172 363.2 538.372 360.867 542.239 356.2C546.106 351.533 548.039 346.267 548.039 340.4C548.039 336.933 546.772 333.867 544.239 331.2C541.839 328.4 538.306 325.467 533.639 322.4L490.839 294.8C484.572 290.8 479.239 285.8 474.839 279.8C470.572 273.8 468.439 266.667 468.439 258.4C468.439 245.467 472.172 235.867 479.639 229.6C487.239 223.2 496.572 220 507.639 220C517.106 220 526.572 223.333 536.039 230C539.106 232.4 541.506 233.6 543.239 233.6C545.639 233.6 547.106 232.067 547.639 229L548.839 223.6H555.239L557.239 275.6H550.839C548.306 266.4 544.772 258.067 540.239 250.6C535.706 243.133 530.439 237.267 524.439 233C518.572 228.6 512.439 226.4 506.039 226.4C498.972 226.4 493.706 227.8 490.239 230.6C486.906 233.4 485.239 237.6 485.239 243.2C485.239 250.8 491.172 258.467 503.039 266.2L546.039 294C551.506 297.6 555.839 302.533 559.039 308.8C562.372 315.067 564.039 321.6 564.039 328.4C564.039 335.333 562.372 341.933 559.039 348.2C555.706 354.467 550.706 359.6 544.039 363.6C537.372 367.6 529.172 369.6 519.439 369.6ZM624.463 359.6H637.263C639.129 359.6 640.396 359.267 641.063 358.6C641.729 357.8 642.063 356.533 642.063 354.8V312.2L608.063 238.8C606.463 235.467 604.796 233.2 603.063 232C601.329 230.667 599.063 230 596.263 230H589.263V223.6H652.063V230H646.463C644.596 230 643.196 230.667 642.263 232C641.329 233.333 640.863 234.8 640.863 236.4C640.863 238.533 641.263 240.4 642.063 242L668.463 299.4L686.863 253.6C688.729 249.333 689.663 245.533 689.663 242.2C689.663 239 688.796 236.2 687.063 233.8C685.329 231.267 682.596 230 678.863 230H673.263V223.6H722.863V230H716.863C712.329 230 708.529 231.467 705.463 234.4C702.529 237.2 700.263 240.6 698.663 244.6L671.663 310.4V354.8C671.663 356.533 671.996 357.8 672.663 358.6C673.463 359.267 674.729 359.6 676.463 359.6H689.263V366H624.463V359.6ZM30 579.6H46C47.8667 579.6 49.1333 579.267 49.8 578.6C50.4667 577.8 50.8 576.533 50.8 574.8V456.8C50.8 454.667 50.1333 453 48.8 451.8C47.4667 450.6 45.6667 450 43.4 450C37.1333 450 31.4 453.467 26.2 460.4C21 467.2 17.1333 475.2 14.6 484.4C13.1333 489.333 12.0667 493.533 11.4 497C10.8667 500.333 10.5333 502.4 10.4 503.2H4L5.6 443.6H125.6L127.2 503.2H120.8C120.667 502.4 120.267 500.333 119.6 497C119.067 493.533 118.067 489.333 116.6 484.4C114.067 475.2 110.2 467.2 105 460.4C99.8 453.467 94.0667 450 87.8 450C85.5333 450 83.7333 450.6 82.4 451.8C81.0667 453 80.4 454.667 80.4 456.8V574.8C80.4 576.533 80.7333 577.8 81.4 578.6C82.2 579.267 83.4667 579.6 85.2 579.6H101.2V586H30V579.6ZM153.564 579.6H167.564C169.431 579.6 170.697 579.267 171.364 578.6C172.031 577.8 172.364 576.533 172.364 574.8V454.8C172.364 452.933 172.031 451.667 171.364 451C170.697 450.333 169.431 450 167.564 450H153.564V443.6H265.964L267.164 490H260.764C260.764 489.067 260.031 486.067 258.564 481C257.231 475.933 255.297 471.333 252.764 467.2C249.697 461.867 246.164 457.667 242.164 454.6C238.164 451.533 233.697 450 228.764 450H206.764C205.031 450 203.764 450.333 202.964 451C202.297 451.667 201.964 452.933 201.964 454.8V510H212.164C215.764 510 219.097 508.533 222.164 505.6C225.231 502.667 227.631 499.067 229.364 494.8C231.231 490.4 232.164 486.267 232.164 482.4H238.564V545H232.164C232.164 541 231.231 536.867 229.364 532.6C227.631 528.2 225.231 524.533 222.164 521.6C219.097 518.667 215.764 517.2 212.164 517.2H201.964V574.8C201.964 576.533 202.297 577.8 202.964 578.6C203.764 579.267 205.031 579.6 206.764 579.6H228.564C235.897 579.6 242.031 576.667 246.964 570.8C251.897 564.933 255.631 558.4 258.164 551.2C259.231 548.133 260.164 544.333 260.964 539.8C261.764 535.267 262.231 532.267 262.364 530.8H268.764L267.564 586H153.564V579.6ZM357.25 589.6C344.85 589.6 334.25 586.133 325.45 579.2C316.783 572.133 310.25 562.933 305.85 551.6C301.45 540.133 299.25 527.867 299.25 514.8C299.25 501.333 301.517 488.933 306.05 477.6C310.583 466.133 317.05 457 325.45 450.2C333.983 443.4 343.917 440 355.25 440C360.183 440 364.717 440.867 368.85 442.6C373.117 444.2 377.583 446.6 382.25 449.8C385.317 451.8 387.583 452.8 389.05 452.8C390.117 452.8 390.983 452.533 391.65 452C392.317 451.333 392.917 450.333 393.45 449L397.05 441.6H403.65V503H397.25C394.183 485.8 388.85 472.067 381.25 461.8C373.783 451.533 365.117 446.4 355.25 446.4C348.983 446.4 343.717 449.467 339.45 455.6C335.317 461.733 333.25 471.467 333.25 484.8V544.8C333.25 558 335.583 567.733 340.25 574C345.05 580.133 350.717 583.2 357.25 583.2C373.117 583.2 384.917 575.933 392.65 561.4C396.517 554.333 399.117 544.2 400.45 531H407.65C407.25 536.867 406.317 542.8 404.85 548.8C403.517 554.667 401.717 559.8 399.45 564.2C395.317 572.2 389.65 578.467 382.45 583C375.383 587.4 366.983 589.6 357.25 589.6ZM435.681 579.6H449.681C451.548 579.6 452.815 579.267 453.481 578.6C454.148 577.8 454.481 576.533 454.481 574.8V454.8C454.481 452.933 454.148 451.667 453.481 451C452.815 450.333 451.548 450 449.681 450H435.681V443.6H502.881V450H488.881C487.148 450 485.881 450.333 485.081 451C484.415 451.667 484.081 452.933 484.081 454.8V507.6H531.281V454.8C531.281 452.933 530.948 451.667 530.281 451C529.615 450.333 528.348 450 526.481 450H512.081V443.6H579.681V450H565.681C563.948 450 562.681 450.333 561.881 451C561.215 451.667 560.881 452.933 560.881 454.8V574.8C560.881 576.533 561.215 577.8 561.881 578.6C562.681 579.267 563.948 579.6 565.681 579.6H579.681V586H512.481V579.6H526.481C528.348 579.6 529.615 579.267 530.281 578.6C530.948 577.8 531.281 576.533 531.281 574.8V514.8H484.081V574.8C484.081 576.533 484.415 577.8 485.081 578.6C485.881 579.267 487.148 579.6 488.881 579.6H502.881V586H435.681V579.6ZM4.4 799.6H18.4C20.2667 799.6 21.5333 799.267 22.2 798.6C22.8667 797.8 23.2 796.533 23.2 794.8V674.8C23.2 672.933 22.8667 671.667 22.2 671C21.5333 670.333 20.2667 670 18.4 670H4.4V663.6H116.8L118 710H111.6C111.6 709.067 110.867 706.067 109.4 701C108.067 695.933 106.133 691.333 103.6 687.2C100.533 681.867 97 677.667 93 674.6C89 671.533 84.5333 670 79.6 670H57.6C55.8667 670 54.6 670.333 53.8 671C53.1333 671.667 52.8 672.933 52.8 674.8V730H63C66.6 730 69.9333 728.533 73 725.6C76.0667 722.667 78.4667 719.067 80.2 714.8C82.0667 710.4 83 706.267 83 702.4H89.4V765H83C83 761 82.0667 756.867 80.2 752.6C78.4667 748.2 76.0667 744.533 73 741.6C69.9333 738.667 66.6 737.2 63 737.2H52.8V794.8C52.8 796.533 53.1333 797.8 53.8 798.6C54.6 799.267 55.8667 799.6 57.6 799.6H79.4C86.7333 799.6 92.8667 796.667 97.8 790.8C102.733 784.933 106.467 778.4 109 771.2C110.067 768.133 111 764.333 111.8 759.8C112.6 755.267 113.067 752.267 113.2 750.8H119.6L118.4 806H4.4V799.6ZM175.886 698.6H174.486V781.6C174.486 787.6 176.486 792.133 180.486 795.2C184.619 798.133 189.553 799.6 195.286 799.6V806H145.686V799.6C151.419 799.6 156.286 798.133 160.286 795.2C164.419 792.133 166.486 787.6 166.486 781.6V674.8C166.486 672.933 166.153 671.667 165.486 671C164.819 670.333 163.553 670 161.686 670H145.686V663.6H193.486L230.086 762L256.886 663.6H307.686V670H293.686C291.953 670 290.686 670.333 289.886 671C289.219 671.667 288.886 672.933 288.886 674.8V794.8C288.886 796.533 289.219 797.8 289.886 798.6C290.686 799.267 291.953 799.6 293.686 799.6H307.686V806H240.486V799.6H254.486C256.353 799.6 257.619 799.267 258.286 798.6C258.953 797.8 259.286 796.533 259.286 794.8V681L224.486 808.4H216.686L175.886 698.6ZM393.216 809.6C382.949 809.6 373.216 806.067 364.016 799C354.949 791.933 347.682 782.667 342.216 771.2C336.749 759.6 334.016 747.467 334.016 734.8C334.016 722.133 336.749 710.067 342.216 698.6C347.682 687 354.949 677.667 364.016 670.6C373.216 663.533 382.949 660 393.216 660C403.482 660 413.149 663.533 422.216 670.6C431.416 677.667 438.749 687 444.216 698.6C449.682 710.067 452.416 722.133 452.416 734.8C452.416 747.467 449.682 759.6 444.216 771.2C438.749 782.667 431.416 791.933 422.216 799C413.149 806.067 403.482 809.6 393.216 809.6ZM393.216 803.2C401.349 803.2 407.549 800.267 411.816 794.4C416.216 788.4 418.416 778.533 418.416 764.8V704.8C418.416 691.067 416.216 681.267 411.816 675.4C407.549 669.4 401.349 666.4 393.216 666.4C385.082 666.4 378.816 669.4 374.416 675.4C370.149 681.267 368.016 691.067 368.016 704.8V764.8C368.016 778.533 370.149 788.4 374.416 794.4C378.816 800.267 385.082 803.2 393.216 803.2ZM506.398 799.6H522.398C524.265 799.6 525.532 799.267 526.198 798.6C526.865 797.8 527.198 796.533 527.198 794.8V676.8C527.198 674.667 526.532 673 525.198 671.8C523.865 670.6 522.065 670 519.798 670C513.532 670 507.798 673.467 502.598 680.4C497.398 687.2 493.532 695.2 490.998 704.4C489.532 709.333 488.465 713.533 487.798 717C487.265 720.333 486.932 722.4 486.798 723.2H480.398L481.998 663.6H601.998L603.598 723.2H597.198C597.065 722.4 596.665 720.333 595.998 717C595.465 713.533 594.465 709.333 592.998 704.4C590.465 695.2 586.598 687.2 581.398 680.4C576.198 673.467 570.465 670 564.198 670C561.932 670 560.132 670.6 558.798 671.8C557.465 673 556.798 674.667 556.798 676.8V794.8C556.798 796.533 557.132 797.8 557.798 798.6C558.598 799.267 559.865 799.6 561.598 799.6H577.598V806H506.398V799.6ZM629.963 799.6H643.962C645.829 799.6 647.096 799.267 647.763 798.6C648.429 797.8 648.763 796.533 648.763 794.8V674.8C648.763 672.933 648.429 671.667 647.763 671C647.096 670.333 645.829 670 643.962 670H629.963V663.6H697.163V670H683.163C681.429 670 680.163 670.333 679.363 671C678.696 671.667 678.363 672.933 678.363 674.8V794.8C678.363 796.533 678.696 797.8 679.363 798.6C680.163 799.267 681.429 799.6 683.163 799.6H697.163V806H629.963V799.6ZM784.848 809.6C774.582 809.6 764.848 806.067 755.648 799C746.582 791.933 739.315 782.667 733.848 771.2C728.382 759.6 725.648 747.467 725.648 734.8C725.648 722.133 728.382 710.067 733.848 698.6C739.315 687 746.582 677.667 755.648 670.6C764.848 663.533 774.582 660 784.848 660C795.115 660 804.782 663.533 813.848 670.6C823.048 677.667 830.382 687 835.848 698.6C841.315 710.067 844.048 722.133 844.048 734.8C844.048 747.467 841.315 759.6 835.848 771.2C830.382 782.667 823.048 791.933 813.848 799C804.782 806.067 795.115 809.6 784.848 809.6ZM784.848 803.2C792.982 803.2 799.182 800.267 803.448 794.4C807.848 788.4 810.048 778.533 810.048 764.8V704.8C810.048 691.067 807.848 681.267 803.448 675.4C799.182 669.4 792.982 666.4 784.848 666.4C776.715 666.4 770.448 669.4 766.048 675.4C761.782 681.267 759.648 691.067 759.648 704.8V764.8C759.648 778.533 761.782 788.4 766.048 794.4C770.448 800.267 776.715 803.2 784.848 803.2ZM903.631 702.6H902.831V778.8C902.831 784.933 905.165 789.933 909.831 793.8C914.631 797.667 920.698 799.6 928.031 799.6V806H869.631V799.6C876.965 799.6 882.965 797.667 887.631 793.8C892.431 789.933 894.831 784.933 894.831 778.8V693.4C894.831 691.933 894.698 690.867 894.431 690.2C894.165 689.533 893.565 688.533 892.631 687.2L884.631 675.2C883.298 673.2 881.831 671.867 880.231 671.2C878.631 670.4 876.298 670 873.231 670H869.631V663.6H914.031L978.031 755V690.8C978.031 684.667 975.631 679.667 970.831 675.8C966.165 671.933 960.165 670 952.831 670V663.6H1011.23V670C1003.9 670 997.831 671.933 993.031 675.8C988.365 679.667 986.031 684.667 986.031 690.8V809.6H978.431L903.631 702.6Z" fill="#242E41" fill-opacity="0.03"/>
</svg>
