<svg width="203" height="52" viewBox="0 0 203 52" fill="none" xmlns="http://www.w3.org/2000/svg">
<path d="M7.2 19.36C5.96 19.36 4.9 19.0133 4.02 18.32C3.15333 17.6133 2.5 16.6933 2.06 15.56C1.62 14.4133 1.4 13.1867 1.4 11.88C1.4 10.5333 1.62667 9.29333 2.08 8.16C2.53333 7.01333 3.18 6.1 4.02 5.42C4.87333 4.74 5.86667 4.4 7 4.4C7.49333 4.4 7.94667 4.48667 8.36 4.66C8.78667 4.82 9.23333 5.06 9.7 5.38C10.0067 5.58 10.2333 5.68 10.38 5.68C10.4867 5.68 10.5733 5.65333 10.64 5.6C10.7067 5.53333 10.7667 5.43333 10.82 5.3L11.18 4.56H11.84V10.7H11.2C10.8933 8.98 10.36 7.60667 9.6 6.58C8.85333 5.55333 7.98667 5.04 7 5.04C6.37333 5.04 5.84667 5.34667 5.42 5.96C5.00667 6.57333 4.8 7.54667 4.8 8.88V14.88C4.8 16.2 5.03333 17.1733 5.5 17.8C5.98 18.4133 6.54667 18.72 7.2 18.72C8.78667 18.72 9.96667 17.9933 10.74 16.54C11.1267 15.8333 11.3867 14.82 11.52 13.5H12.24C12.2 14.0867 12.1067 14.68 11.96 15.28C11.8267 15.8667 11.6467 16.38 11.42 16.82C11.0067 17.62 10.44 18.2467 9.72 18.7C9.01333 19.14 8.17333 19.36 7.2 19.36ZM15.2431 18.36H16.6431C16.8298 18.36 16.9565 18.3267 17.0231 18.26C17.0898 18.18 17.1231 18.0533 17.1231 17.88V5.88C17.1231 5.69333 17.0898 5.56667 17.0231 5.5C16.9565 5.43333 16.8298 5.4 16.6431 5.4H15.2431V4.76H21.9631V5.4H20.5631C20.3898 5.4 20.2631 5.43333 20.1831 5.5C20.1165 5.56667 20.0831 5.69333 20.0831 5.88V11.16H24.8031V5.88C24.8031 5.69333 24.7698 5.56667 24.7031 5.5C24.6365 5.43333 24.5098 5.4 24.3231 5.4H22.8831V4.76H29.6431V5.4H28.2431C28.0698 5.4 27.9431 5.43333 27.8631 5.5C27.7965 5.56667 27.7631 5.69333 27.7631 5.88V17.88C27.7631 18.0533 27.7965 18.18 27.8631 18.26C27.9431 18.3267 28.0698 18.36 28.2431 18.36H29.6431V19H22.9231V18.36H24.3231C24.5098 18.36 24.6365 18.3267 24.7031 18.26C24.7698 18.18 24.8031 18.0533 24.8031 17.88V11.88H20.0831V17.88C20.0831 18.0533 20.1165 18.18 20.1831 18.26C20.2631 18.3267 20.3898 18.36 20.5631 18.36H21.9631V19H15.2431V18.36ZM43.1875 19.48C42.3342 19.48 41.6542 19.2267 41.1475 18.72C40.6542 18.2133 40.4075 17.4667 40.4075 16.48V14C40.4075 13.36 40.2475 12.82 39.9275 12.38C39.6208 11.94 39.1408 11.72 38.4875 11.72H37.3675V17.88C37.3675 18.0533 37.4008 18.18 37.4675 18.26C37.5475 18.3267 37.6742 18.36 37.8475 18.36H39.6075V19H32.5275V18.36H33.9275C34.1142 18.36 34.2408 18.3267 34.3075 18.26C34.3742 18.18 34.4075 18.0533 34.4075 17.88V5.88C34.4075 5.69333 34.3742 5.56667 34.3075 5.5C34.2408 5.43333 34.1142 5.4 33.9275 5.4H32.5275V4.76H39.0075C40.4475 4.76 41.6075 5.08 42.4875 5.72C43.3675 6.34667 43.8075 7.2 43.8075 8.28C43.8075 9.2 43.4675 9.92667 42.7875 10.46C42.1208 10.9933 41.2342 11.3267 40.1275 11.46V11.6C41.1675 11.7867 41.9675 12.16 42.5275 12.72C43.0875 13.2667 43.3675 14.1267 43.3675 15.3V17.52C43.3675 18.08 43.5542 18.36 43.9275 18.36C44.2742 18.36 44.5275 18.0733 44.6875 17.5C44.8475 16.9267 44.9275 16.2267 44.9275 15.4H45.5675C45.5675 16.6933 45.3942 17.7 45.0475 18.42C44.7008 19.1267 44.0808 19.48 43.1875 19.48ZM38.7075 11.08C39.4142 11.08 39.9075 10.82 40.1875 10.3C40.4675 9.78 40.6075 9.05333 40.6075 8.12C40.6075 7.21333 40.4675 6.53333 40.1875 6.08C39.9075 5.62667 39.4142 5.4 38.7075 5.4H37.8475C37.6742 5.4 37.5475 5.43333 37.4675 5.5C37.4008 5.56667 37.3675 5.69333 37.3675 5.88V11.08H38.7075ZM47.9369 18.36H49.3369C49.5235 18.36 49.6502 18.3267 49.7169 18.26C49.7835 18.18 49.8169 18.0533 49.8169 17.88V5.88C49.8169 5.69333 49.7835 5.56667 49.7169 5.5C49.6502 5.43333 49.5235 5.4 49.3369 5.4H47.9369V4.76H54.6569V5.4H53.2569C53.0835 5.4 52.9569 5.43333 52.8769 5.5C52.8102 5.56667 52.7769 5.69333 52.7769 5.88V17.88C52.7769 18.0533 52.8102 18.18 52.8769 18.26C52.9569 18.3267 53.0835 18.36 53.2569 18.36H54.6569V19H47.9369V18.36ZM63.2455 19.36C62.6588 19.36 62.1321 19.2733 61.6655 19.1C61.1988 18.94 60.8121 18.7333 60.5055 18.48C60.1988 18.2533 59.9788 18.1 59.8455 18.02C59.7121 17.9267 59.5855 17.88 59.4655 17.88C59.1855 17.88 59.0121 18.1067 58.9455 18.56L58.8455 19.2H58.2255L58.1055 12.88H58.7455C58.9321 13.8933 59.2455 14.8467 59.6855 15.74C60.1388 16.6333 60.6788 17.3533 61.3055 17.9C61.9455 18.4467 62.6321 18.72 63.3655 18.72C64.4188 18.72 65.1388 18.4867 65.5255 18.02C65.9121 17.5533 66.1055 17.0267 66.1055 16.44C66.1055 16.0933 65.9788 15.7867 65.7255 15.52C65.4855 15.24 65.1321 14.9467 64.6655 14.64L60.3855 11.88C59.7588 11.48 59.2255 10.98 58.7855 10.38C58.3588 9.78 58.1455 9.06667 58.1455 8.24C58.1455 6.94667 58.5188 5.98667 59.2655 5.36C60.0255 4.72 60.9588 4.4 62.0655 4.4C63.0121 4.4 63.9588 4.73333 64.9055 5.4C65.2121 5.64 65.4521 5.76 65.6255 5.76C65.8655 5.76 66.0121 5.60667 66.0655 5.3L66.1855 4.76H66.8255L67.0255 9.96H66.3855C66.1321 9.04 65.7788 8.20667 65.3255 7.46C64.8721 6.71333 64.3455 6.12667 63.7455 5.7C63.1588 5.26 62.5455 5.04 61.9055 5.04C61.1988 5.04 60.6721 5.18 60.3255 5.46C59.9921 5.74 59.8255 6.16 59.8255 6.72C59.8255 7.48 60.4188 8.24667 61.6055 9.02L65.9055 11.8C66.4521 12.16 66.8855 12.6533 67.2055 13.28C67.5388 13.9067 67.7055 14.56 67.7055 15.24C67.7055 15.9333 67.5388 16.5933 67.2055 17.22C66.8721 17.8467 66.3721 18.36 65.7055 18.76C65.0388 19.16 64.2188 19.36 63.2455 19.36ZM73.3078 18.36H74.9078C75.0945 18.36 75.2211 18.3267 75.2878 18.26C75.3545 18.18 75.3878 18.0533 75.3878 17.88V6.08C75.3878 5.86667 75.3211 5.7 75.1878 5.58C75.0545 5.46 74.8745 5.4 74.6478 5.4C74.0211 5.4 73.4478 5.74667 72.9278 6.44C72.4078 7.12 72.0211 7.92 71.7678 8.84C71.6211 9.33333 71.5145 9.75333 71.4478 10.1C71.3945 10.4333 71.3611 10.64 71.3478 10.72H70.7078L70.8678 4.76H82.8678L83.0278 10.72H82.3878C82.3745 10.64 82.3345 10.4333 82.2678 10.1C82.2145 9.75333 82.1145 9.33333 81.9678 8.84C81.7145 7.92 81.3278 7.12 80.8078 6.44C80.2878 5.74667 79.7145 5.4 79.0878 5.4C78.8611 5.4 78.6811 5.46 78.5478 5.58C78.4145 5.7 78.3478 5.86667 78.3478 6.08V17.88C78.3478 18.0533 78.3811 18.18 78.4478 18.26C78.5278 18.3267 78.6545 18.36 78.8278 18.36H80.4278V19H73.3078V18.36ZM85.8642 18.36H87.2642C87.4509 18.36 87.5776 18.3267 87.6442 18.26C87.7109 18.18 87.7442 18.0533 87.7442 17.88V5.88C87.7442 5.69333 87.7109 5.56667 87.6442 5.5C87.5776 5.43333 87.4509 5.4 87.2642 5.4H85.8642V4.76H92.5842V5.4H91.1842C91.0109 5.4 90.8842 5.43333 90.8042 5.5C90.7376 5.56667 90.7042 5.69333 90.7042 5.88V17.88C90.7042 18.0533 90.7376 18.18 90.8042 18.26C90.8842 18.3267 91.0109 18.36 91.1842 18.36H92.5842V19H85.8642V18.36ZM95.1128 18.36H95.7928C96.1928 18.36 96.5461 18.2067 96.8528 17.9C97.1595 17.58 97.3928 17.1933 97.5528 16.74L101.773 4.4H102.613L106.893 17.34C107.119 18.02 107.513 18.36 108.073 18.36H108.873V19H101.853V18.36H103.293C103.453 18.36 103.579 18.3 103.673 18.18C103.779 18.0467 103.833 17.8933 103.833 17.72C103.833 17.5733 103.793 17.38 103.713 17.14L103.073 15.22H98.8728L98.4528 16.44C98.3061 16.8133 98.2328 17.1533 98.2328 17.46C98.2328 17.7 98.3261 17.9133 98.5128 18.1C98.7128 18.2733 98.9661 18.36 99.2728 18.36H100.213V19H95.1128V18.36ZM99.1328 14.48H102.833L101.013 8.98L99.1328 14.48ZM114.471 8.66H114.391V16.28C114.391 16.8933 114.624 17.3933 115.091 17.78C115.571 18.1667 116.178 18.36 116.911 18.36V19H111.071V18.36C111.804 18.36 112.404 18.1667 112.871 17.78C113.351 17.3933 113.591 16.8933 113.591 16.28V7.74C113.591 7.59333 113.578 7.48667 113.551 7.42C113.524 7.35333 113.464 7.25333 113.371 7.12L112.571 5.92C112.438 5.72 112.291 5.58667 112.131 5.52C111.971 5.44 111.738 5.4 111.431 5.4H111.071V4.76H115.511L121.911 13.9V7.48C121.911 6.86667 121.671 6.36667 121.191 5.98C120.724 5.59333 120.124 5.4 119.391 5.4V4.76H125.231V5.4C124.498 5.4 123.891 5.59333 123.411 5.98C122.944 6.36667 122.711 6.86667 122.711 7.48V19.36H121.951L114.471 8.66Z" fill="white"/>
<path d="M125.24 42.36H126.64C126.827 42.36 126.953 42.3267 127.02 42.26C127.087 42.18 127.12 42.0533 127.12 41.88V29.88C127.12 29.6933 127.087 29.5667 127.02 29.5C126.953 29.4333 126.827 29.4 126.64 29.4H125.24V28.76H131.96V29.4H130.56C130.387 29.4 130.26 29.4333 130.18 29.5C130.113 29.5667 130.08 29.6933 130.08 29.88V35.16H134.8V29.88C134.8 29.6933 134.767 29.5667 134.7 29.5C134.633 29.4333 134.507 29.4 134.32 29.4H132.88V28.76H139.64V29.4H138.24C138.067 29.4 137.94 29.4333 137.86 29.5C137.793 29.5667 137.76 29.6933 137.76 29.88V41.88C137.76 42.0533 137.793 42.18 137.86 42.26C137.94 42.3267 138.067 42.36 138.24 42.36H139.64V43H132.92V42.36H134.32C134.507 42.36 134.633 42.3267 134.7 42.26C134.767 42.18 134.8 42.0533 134.8 41.88V35.88H130.08V41.88C130.08 42.0533 130.113 42.18 130.18 42.26C130.26 42.3267 130.387 42.36 130.56 42.36H131.96V43H125.24V42.36ZM149.664 43.36C148.464 43.36 147.471 43.1267 146.684 42.66C145.898 42.18 145.318 41.56 144.944 40.8C144.584 40.0267 144.404 39.18 144.404 38.26V29.88C144.404 29.6933 144.371 29.5667 144.304 29.5C144.238 29.4333 144.111 29.4 143.924 29.4H142.644V28.76H149.124V29.4H147.844C147.671 29.4 147.544 29.4333 147.464 29.5C147.398 29.5667 147.364 29.6933 147.364 29.88V39.04C147.364 40.2667 147.598 41.16 148.064 41.72C148.531 42.28 149.251 42.56 150.224 42.56C150.878 42.56 151.464 42.4 151.984 42.08C152.504 41.76 152.911 41.3333 153.204 40.8C153.498 40.2667 153.644 39.68 153.644 39.04V31.2C153.644 30.6 153.438 30.1533 153.024 29.86C152.624 29.5533 152.138 29.4 151.564 29.4V28.76H156.524V29.4C155.951 29.4 155.458 29.5533 155.044 29.86C154.644 30.1533 154.444 30.6 154.444 31.2V38.84C154.444 39.68 154.251 40.4467 153.864 41.14C153.491 41.82 152.938 42.36 152.204 42.76C151.484 43.16 150.638 43.36 149.664 43.36ZM159.203 42.36H160.603C160.79 42.36 160.917 42.3267 160.983 42.26C161.05 42.18 161.083 42.0533 161.083 41.88V29.88C161.083 29.6933 161.05 29.5667 160.983 29.5C160.917 29.4333 160.79 29.4 160.603 29.4H159.203V28.76H166.243C167.03 28.76 167.763 28.9067 168.443 29.2C169.137 29.4933 169.69 29.9 170.103 30.42C170.517 30.9267 170.723 31.5067 170.723 32.16C170.723 33.04 170.397 33.7533 169.743 34.3C169.09 34.8467 168.29 35.2467 167.343 35.5V35.62C167.957 35.7133 168.557 35.9133 169.143 36.22C169.743 36.5133 170.237 36.9067 170.623 37.4C171.01 37.8933 171.203 38.4667 171.203 39.12C171.203 39.9333 170.99 40.6333 170.563 41.22C170.137 41.8067 169.563 42.2533 168.843 42.56C168.137 42.8533 167.357 43 166.503 43H159.203V42.36ZM165.883 35.24C166.603 35.24 167.09 34.9867 167.343 34.48C167.597 33.96 167.723 33.1867 167.723 32.16C167.723 31.2933 167.57 30.62 167.263 30.14C166.957 29.6467 166.537 29.4 166.003 29.4H164.523C164.35 29.4 164.223 29.4333 164.143 29.5C164.077 29.5667 164.043 29.6933 164.043 29.88V35.24H165.883ZM165.883 42.36C166.59 42.36 167.117 42.1267 167.463 41.66C167.823 41.18 168.003 40.3333 168.003 39.12C168.003 37.9067 167.823 37.0667 167.463 36.6C167.117 36.12 166.59 35.88 165.883 35.88H164.043V41.88C164.043 42.0533 164.077 42.18 164.143 42.26C164.223 42.3267 164.35 42.36 164.523 42.36H165.883ZM174.203 42.36H175.603C175.789 42.36 175.916 42.3267 175.983 42.26C176.049 42.18 176.083 42.0533 176.083 41.88V29.88C176.083 29.6933 176.049 29.5667 175.983 29.5C175.916 29.4333 175.789 29.4 175.603 29.4H174.203V28.76H185.443L185.563 33.4H184.923C184.923 33.3067 184.849 33.0067 184.703 32.5C184.569 31.9933 184.376 31.5333 184.123 31.12C183.816 30.5867 183.463 30.1667 183.063 29.86C182.663 29.5533 182.216 29.4 181.723 29.4H179.523C179.349 29.4 179.223 29.4333 179.143 29.5C179.076 29.5667 179.043 29.6933 179.043 29.88V35.4H180.063C180.423 35.4 180.756 35.2533 181.063 34.96C181.369 34.6667 181.609 34.3067 181.783 33.88C181.969 33.44 182.063 33.0267 182.063 32.64H182.703V38.9H182.063C182.063 38.5 181.969 38.0867 181.783 37.66C181.609 37.22 181.369 36.8533 181.063 36.56C180.756 36.2667 180.423 36.12 180.063 36.12H179.043V41.88C179.043 42.0533 179.076 42.18 179.143 42.26C179.223 42.3267 179.349 42.36 179.523 42.36H181.703C182.436 42.36 183.049 42.0667 183.543 41.48C184.036 40.8933 184.409 40.24 184.663 39.52C184.769 39.2133 184.863 38.8333 184.943 38.38C185.023 37.9267 185.069 37.6267 185.083 37.48H185.723L185.603 43H174.203V42.36ZM199.471 43.48C198.618 43.48 197.938 43.2267 197.431 42.72C196.938 42.2133 196.691 41.4667 196.691 40.48V38C196.691 37.36 196.531 36.82 196.211 36.38C195.904 35.94 195.424 35.72 194.771 35.72H193.651V41.88C193.651 42.0533 193.684 42.18 193.751 42.26C193.831 42.3267 193.958 42.36 194.131 42.36H195.891V43H188.811V42.36H190.211C190.398 42.36 190.524 42.3267 190.591 42.26C190.658 42.18 190.691 42.0533 190.691 41.88V29.88C190.691 29.6933 190.658 29.5667 190.591 29.5C190.524 29.4333 190.398 29.4 190.211 29.4H188.811V28.76H195.291C196.731 28.76 197.891 29.08 198.771 29.72C199.651 30.3467 200.091 31.2 200.091 32.28C200.091 33.2 199.751 33.9267 199.071 34.46C198.404 34.9933 197.518 35.3267 196.411 35.46V35.6C197.451 35.7867 198.251 36.16 198.811 36.72C199.371 37.2667 199.651 38.1267 199.651 39.3V41.52C199.651 42.08 199.838 42.36 200.211 42.36C200.558 42.36 200.811 42.0733 200.971 41.5C201.131 40.9267 201.211 40.2267 201.211 39.4H201.851C201.851 40.6933 201.678 41.7 201.331 42.42C200.984 43.1267 200.364 43.48 199.471 43.48ZM194.991 35.08C195.698 35.08 196.191 34.82 196.471 34.3C196.751 33.78 196.891 33.0533 196.891 32.12C196.891 31.2133 196.751 30.5333 196.471 30.08C196.191 29.6267 195.698 29.4 194.991 29.4H194.131C193.958 29.4 193.831 29.4333 193.751 29.5C193.684 29.5667 193.651 29.6933 193.651 29.88V35.08H194.991Z" fill="white"/>
</svg>
